<svg width="45" height="45" viewBox="0 0 45 45" fill="none" xmlns="http://www.w3.org/2000/svg">
<path d="M33.7163 35.1094C32.4061 33.3748 30.7111 31.9681 28.7647 31.0001C26.8184 30.0321 24.6738 29.5293 22.5 29.5313C20.3262 29.5293 18.1817 30.0321 16.2353 31.0001C14.2889 31.9681 12.5939 33.3748 11.2838 35.1094M33.7144 35.1094C36.271 32.8354 38.0759 29.838 38.8897 26.5146C39.7036 23.1912 39.488 19.699 38.2715 16.501C37.055 13.3029 34.8951 10.5503 32.0783 8.60799C29.2614 6.66572 25.9207 5.62561 22.4991 5.62561C19.0775 5.62561 15.7368 6.66572 12.9199 8.60799C10.103 10.5503 7.94314 13.3029 6.72665 16.501C5.51016 19.699 5.29456 23.1912 6.10844 26.5146C6.92231 29.838 8.72721 32.8354 11.2838 35.1094M33.7144 35.1094C30.6282 37.8623 26.6356 39.3809 22.5 39.3751C18.3638 39.3814 14.3705 37.8627 11.2838 35.1094M28.125 18.2813C28.125 19.7731 27.5324 21.2039 26.4775 22.2588C25.4226 23.3137 23.9919 23.9063 22.5 23.9063C21.0082 23.9063 19.5774 23.3137 18.5225 22.2588C17.4677 21.2039 16.875 19.7731 16.875 18.2813C16.875 16.7895 17.4677 15.3587 18.5225 14.3038C19.5774 13.2489 21.0082 12.6563 22.5 12.6563C23.9919 12.6563 25.4226 13.2489 26.4775 14.3038C27.5324 15.3587 28.125 16.7895 28.125 18.2813V18.2813Z" stroke="black" stroke-width="1.5" stroke-linecap="round" stroke-linejoin="round"/>
</svg>
