<svg id="visual" viewBox="0 0 900 300" width="900" height="300" xmlns="http://www.w3.org/2000/svg" xmlns:xlink="http://www.w3.org/1999/xlink" version="1.1"><rect x="0" y="0" width="900" height="300" fill="#000000"></rect><path d="M0 126L21.5 137.2C43 148.3 86 170.7 128.8 175.5C171.7 180.3 214.3 167.7 257.2 157.3C300 147 343 139 385.8 143.5C428.7 148 471.3 165 514.2 164.5C557 164 600 146 642.8 137.5C685.7 129 728.3 130 771.2 136.8C814 143.7 857 156.3 878.5 162.7L900 169L900 301L878.5 301C857 301 814 301 771.2 301C728.3 301 685.7 301 642.8 301C600 301 557 301 514.2 301C471.3 301 428.7 301 385.8 301C343 301 300 301 257.2 301C214.3 301 171.7 301 128.8 301C86 301 43 301 21.5 301L0 301Z" fill="#fefefe"></path><path d="M0 164L21.5 168.2C43 172.3 86 180.7 128.8 188.3C171.7 196 214.3 203 257.2 204.2C300 205.3 343 200.7 385.8 194.7C428.7 188.7 471.3 181.3 514.2 183.3C557 185.3 600 196.7 642.8 194.3C685.7 192 728.3 176 771.2 170.8C814 165.7 857 171.3 878.5 174.2L900 177L900 301L878.5 301C857 301 814 301 771.2 301C728.3 301 685.7 301 642.8 301C600 301 557 301 514.2 301C471.3 301 428.7 301 385.8 301C343 301 300 301 257.2 301C214.3 301 171.7 301 128.8 301C86 301 43 301 21.5 301L0 301Z" fill="#c0c0c0"></path><path d="M0 215L21.5 214C43 213 86 211 128.8 214C171.7 217 214.3 225 257.2 223.8C300 222.7 343 212.3 385.8 210.2C428.7 208 471.3 214 514.2 214.2C557 214.3 600 208.7 642.8 210.2C685.7 211.7 728.3 220.3 771.2 220.3C814 220.3 857 211.7 878.5 207.3L900 203L900 301L878.5 301C857 301 814 301 771.2 301C728.3 301 685.7 301 642.8 301C600 301 557 301 514.2 301C471.3 301 428.7 301 385.8 301C343 301 300 301 257.2 301C214.3 301 171.7 301 128.8 301C86 301 43 301 21.5 301L0 301Z" fill="#858585"></path><path d="M0 227L21.5 227.5C43 228 86 229 128.8 231.8C171.7 234.7 214.3 239.3 257.2 239.7C300 240 343 236 385.8 235.8C428.7 235.7 471.3 239.3 514.2 241.3C557 243.3 600 243.7 642.8 242.7C685.7 241.7 728.3 239.3 771.2 234.8C814 230.3 857 223.7 878.5 220.3L900 217L900 301L878.5 301C857 301 814 301 771.2 301C728.3 301 685.7 301 642.8 301C600 301 557 301 514.2 301C471.3 301 428.7 301 385.8 301C343 301 300 301 257.2 301C214.3 301 171.7 301 128.8 301C86 301 43 301 21.5 301L0 301Z" fill="#4f4f4f"></path><path d="M0 273L21.5 269.7C43 266.3 86 259.7 128.8 259.5C171.7 259.3 214.3 265.7 257.2 266.5C300 267.3 343 262.7 385.8 262.8C428.7 263 471.3 268 514.2 270.8C557 273.7 600 274.3 642.8 270.3C685.7 266.3 728.3 257.7 771.2 253C814 248.3 857 247.7 878.5 247.3L900 247L900 301L878.5 301C857 301 814 301 771.2 301C728.3 301 685.7 301 642.8 301C600 301 557 301 514.2 301C471.3 301 428.7 301 385.8 301C343 301 300 301 257.2 301C214.3 301 171.7 301 128.8 301C86 301 43 301 21.5 301L0 301Z" fill="#1f1f1f"></path></svg>