<svg id="visual" viewBox="0 0 900 300" width="900" height="300" xmlns="http://www.w3.org/2000/svg" xmlns:xlink="http://www.w3.org/1999/xlink" version="1.1"><rect x="0" y="0" width="900" height="300" fill="#000000"></rect><path d="M0 200L21.5 206.3C43 212.7 86 225.3 128.8 228.2C171.7 231 214.3 224 257.2 218.2C300 212.3 343 207.7 385.8 210.2C428.7 212.7 471.3 222.3 514.2 222C557 221.7 600 211.3 642.8 206.5C685.7 201.7 728.3 202.3 771.2 206.3C814 210.3 857 217.7 878.5 221.3L900 225L900 301L878.5 301C857 301 814 301 771.2 301C728.3 301 685.7 301 642.8 301C600 301 557 301 514.2 301C471.3 301 428.7 301 385.8 301C343 301 300 301 257.2 301C214.3 301 171.7 301 128.8 301C86 301 43 301 21.5 301L0 301Z" fill="#fefefe"></path><path d="M0 222L21.5 224.3C43 226.7 86 231.3 128.8 235.7C171.7 240 214.3 244 257.2 244.7C300 245.3 343 242.7 385.8 239.3C428.7 236 471.3 232 514.2 233.2C557 234.3 600 240.7 642.8 239.3C685.7 238 728.3 229 771.2 226C814 223 857 226 878.5 227.5L900 229L900 301L878.5 301C857 301 814 301 771.2 301C728.3 301 685.7 301 642.8 301C600 301 557 301 514.2 301C471.3 301 428.7 301 385.8 301C343 301 300 301 257.2 301C214.3 301 171.7 301 128.8 301C86 301 43 301 21.5 301L0 301Z" fill="#c0c0c0"></path><path d="M0 251L21.5 250.3C43 249.7 86 248.3 128.8 250C171.7 251.7 214.3 256.3 257.2 255.8C300 255.3 343 249.7 385.8 248.5C428.7 247.3 471.3 250.7 514.2 250.7C557 250.7 600 247.3 642.8 248.2C685.7 249 728.3 254 771.2 254C814 254 857 249 878.5 246.5L900 244L900 301L878.5 301C857 301 814 301 771.2 301C728.3 301 685.7 301 642.8 301C600 301 557 301 514.2 301C471.3 301 428.7 301 385.8 301C343 301 300 301 257.2 301C214.3 301 171.7 301 128.8 301C86 301 43 301 21.5 301L0 301Z" fill="#858585"></path><path d="M0 258L21.5 258.3C43 258.7 86 259.3 128.8 261C171.7 262.7 214.3 265.3 257.2 265.5C300 265.7 343 263.3 385.8 263.2C428.7 263 471.3 265 514.2 266.2C557 267.3 600 267.7 642.8 267C685.7 266.3 728.3 264.7 771.2 262C814 259.3 857 255.7 878.5 253.8L900 252L900 301L878.5 301C857 301 814 301 771.2 301C728.3 301 685.7 301 642.8 301C600 301 557 301 514.2 301C471.3 301 428.7 301 385.8 301C343 301 300 301 257.2 301C214.3 301 171.7 301 128.8 301C86 301 43 301 21.5 301L0 301Z" fill="#4f4f4f"></path><path d="M0 284L21.5 282.2C43 280.3 86 276.7 128.8 276.5C171.7 276.3 214.3 279.7 257.2 280.2C300 280.7 343 278.3 385.8 278.5C428.7 278.7 471.3 281.3 514.2 282.8C557 284.3 600 284.7 642.8 282.3C685.7 280 728.3 275 771.2 272.3C814 269.7 857 269.3 878.5 269.2L900 269L900 301L878.5 301C857 301 814 301 771.2 301C728.3 301 685.7 301 642.8 301C600 301 557 301 514.2 301C471.3 301 428.7 301 385.8 301C343 301 300 301 257.2 301C214.3 301 171.7 301 128.8 301C86 301 43 301 21.5 301L0 301Z" fill="#1f1f1f"></path></svg>