<svg id="visual" viewBox="0 0 900 300" width="900" height="300" xmlns="http://www.w3.org/2000/svg" xmlns:xlink="http://www.w3.org/1999/xlink" version="1.1"><rect x="0" y="0" width="900" height="300" fill="#f1f1f1"></rect><path d="M0 227L21.5 227.7C43 228.3 86 229.7 128.8 229.8C171.7 230 214.3 229 257.2 230C300 231 343 234 385.8 230.5C428.7 227 471.3 217 514.2 210.8C557 204.7 600 202.3 642.8 206C685.7 209.7 728.3 219.3 771.2 223.7C814 228 857 227 878.5 226.5L900 226L900 301L878.5 301C857 301 814 301 771.2 301C728.3 301 685.7 301 642.8 301C600 301 557 301 514.2 301C471.3 301 428.7 301 385.8 301C343 301 300 301 257.2 301C214.3 301 171.7 301 128.8 301C86 301 43 301 21.5 301L0 301Z" fill="#cccccc"></path><path d="M0 233L21.5 232.3C43 231.7 86 230.3 128.8 229.7C171.7 229 214.3 229 257.2 227.2C300 225.3 343 221.7 385.8 224.2C428.7 226.7 471.3 235.3 514.2 235.5C557 235.7 600 227.3 642.8 225.2C685.7 223 728.3 227 771.2 227.3C814 227.7 857 224.3 878.5 222.7L900 221L900 301L878.5 301C857 301 814 301 771.2 301C728.3 301 685.7 301 642.8 301C600 301 557 301 514.2 301C471.3 301 428.7 301 385.8 301C343 301 300 301 257.2 301C214.3 301 171.7 301 128.8 301C86 301 43 301 21.5 301L0 301Z" fill="#959595"></path><path d="M0 246L21.5 245.7C43 245.3 86 244.7 128.8 243.8C171.7 243 214.3 242 257.2 241.5C300 241 343 241 385.8 242.3C428.7 243.7 471.3 246.3 514.2 246.3C557 246.3 600 243.7 642.8 244.8C685.7 246 728.3 251 771.2 251.5C814 252 857 248 878.5 246L900 244L900 301L878.5 301C857 301 814 301 771.2 301C728.3 301 685.7 301 642.8 301C600 301 557 301 514.2 301C471.3 301 428.7 301 385.8 301C343 301 300 301 257.2 301C214.3 301 171.7 301 128.8 301C86 301 43 301 21.5 301L0 301Z" fill="#616161"></path><path d="M0 268L21.5 265.5C43 263 86 258 128.8 255.7C171.7 253.3 214.3 253.7 257.2 255C300 256.3 343 258.7 385.8 262C428.7 265.3 471.3 269.7 514.2 269.3C557 269 600 264 642.8 262C685.7 260 728.3 261 771.2 263.5C814 266 857 270 878.5 272L900 274L900 301L878.5 301C857 301 814 301 771.2 301C728.3 301 685.7 301 642.8 301C600 301 557 301 514.2 301C471.3 301 428.7 301 385.8 301C343 301 300 301 257.2 301C214.3 301 171.7 301 128.8 301C86 301 43 301 21.5 301L0 301Z" fill="#323232"></path><path d="M0 288L21.5 285C43 282 86 276 128.8 274.2C171.7 272.3 214.3 274.7 257.2 277.3C300 280 343 283 385.8 282.5C428.7 282 471.3 278 514.2 278C557 278 600 282 642.8 283C685.7 284 728.3 282 771.2 282.2C814 282.3 857 284.7 878.5 285.8L900 287L900 301L878.5 301C857 301 814 301 771.2 301C728.3 301 685.7 301 642.8 301C600 301 557 301 514.2 301C471.3 301 428.7 301 385.8 301C343 301 300 301 257.2 301C214.3 301 171.7 301 128.8 301C86 301 43 301 21.5 301L0 301Z" fill="#000000"></path></svg>