<svg width="34" height="34" viewBox="0 0 34 34" fill="none" xmlns="http://www.w3.org/2000/svg">
<path d="M22.3125 12.75V7.4375C22.3125 6.59212 21.9767 5.78137 21.3789 5.1836C20.7811 4.58582 19.9704 4.25 19.125 4.25H10.625C9.77962 4.25 8.96887 4.58582 8.3711 5.1836C7.77333 5.78137 7.4375 6.59212 7.4375 7.4375V26.5625C7.4375 27.4079 7.77333 28.2186 8.3711 28.8164C8.96887 29.4142 9.77962 29.75 10.625 29.75H19.125C19.9704 29.75 20.7811 29.4142 21.3789 28.8164C21.9767 28.2186 22.3125 27.4079 22.3125 26.5625V21.25M26.5625 21.25L30.8125 17M30.8125 17L26.5625 12.75M30.8125 17H12.75" stroke="black" stroke-width="1.5" stroke-linecap="round" stroke-linejoin="round"/>
</svg>
