<svg width="24" height="24" viewBox="0 0 24 24" fill="none" xmlns="http://www.w3.org/2000/svg">
<path d="M5.625 3.75C4.92881 3.75 4.26113 4.02656 3.76884 4.51884C3.27656 5.01113 3 5.67881 3 6.375C3 7.07119 3.27656 7.73887 3.76884 8.23116C4.26113 8.72344 4.92881 9 5.625 9H18.375C19.0712 9 19.7389 8.72344 20.2312 8.23116C20.7234 7.73887 21 7.07119 21 6.375C21 5.67881 20.7234 5.01113 20.2312 4.51884C19.7389 4.02656 19.0712 3.75 18.375 3.75H5.625ZM3.75 11.25C3.55109 11.25 3.36032 11.329 3.21967 11.4697C3.07902 11.6103 3 11.8011 3 12C3 12.1989 3.07902 12.3897 3.21967 12.5303C3.36032 12.671 3.55109 12.75 3.75 12.75H20.25C20.4489 12.75 20.6397 12.671 20.7803 12.5303C20.921 12.3897 21 12.1989 21 12C21 11.8011 20.921 11.6103 20.7803 11.4697C20.6397 11.329 20.4489 11.25 20.25 11.25H3.75ZM3 15.75C3 15.5511 3.07902 15.3603 3.21967 15.2197C3.36032 15.079 3.55109 15 3.75 15H20.25C20.4489 15 20.6397 15.079 20.7803 15.2197C20.921 15.3603 21 15.5511 21 15.75C21 15.9489 20.921 16.1397 20.7803 16.2803C20.6397 16.421 20.4489 16.5 20.25 16.5H3.75C3.55109 16.5 3.36032 16.421 3.21967 16.2803C3.07902 16.1397 3 15.9489 3 15.75V15.75ZM3.75 18.75C3.55109 18.75 3.36032 18.829 3.21967 18.9697C3.07902 19.1103 3 19.3011 3 19.5C3 19.6989 3.07902 19.8897 3.21967 20.0303C3.36032 20.171 3.55109 20.25 3.75 20.25H20.25C20.4489 20.25 20.6397 20.171 20.7803 20.0303C20.921 19.8897 21 19.6989 21 19.5C21 19.3011 20.921 19.1103 20.7803 18.9697C20.6397 18.829 20.4489 18.75 20.25 18.75H3.75Z" fill="black"/>
</svg>
