<svg width="33" height="33" viewBox="0 0 33 33" fill="none" xmlns="http://www.w3.org/2000/svg">
<path d="M5.15625 16.5H27.8438M5.15625 21.6562H27.8438M5.15625 26.8125H27.8438M7.73438 6.1875H25.2656C25.9494 6.1875 26.6051 6.45912 27.0886 6.94262C27.5721 7.42611 27.8438 8.08186 27.8438 8.76562C27.8438 9.44939 27.5721 10.1051 27.0886 10.5886C26.6051 11.0721 25.9494 11.3437 25.2656 11.3438H7.73438C7.05061 11.3438 6.39486 11.0721 5.91137 10.5886C5.42787 10.1051 5.15625 9.44939 5.15625 8.76562C5.15625 8.08186 5.42787 7.42611 5.91137 6.94262C6.39486 6.45912 7.05061 6.1875 7.73438 6.1875V6.1875Z" stroke="black" stroke-width="1.5" stroke-linecap="round" stroke-linejoin="round"/>
</svg>
